<svg xmlns="http://www.w3.org/2000/svg" viewBox="0 0 1200 800" fill="none">
  <defs>
    <linearGradient id="sky" x1="0" y1="0" x2="1" y2="1">
      <stop stop-color="#dbeafe"/>
      <stop offset="1" stop-color="#f8fafc"/>
    </linearGradient>
    <linearGradient id="sea" x1="0" y1="0" x2="0" y2="1">
      <stop stop-color="#7dd3fc"/>
      <stop offset="1" stop-color="#2563eb"/>
    </linearGradient>
  </defs>
  <path fill="url(#sky)" d="M0 0h1200v800H0z"/>
  <circle cx="950" cy="170" r="72" fill="#fff" fill-opacity=".72"/>
  <path fill="url(#sea)" d="M0 470c177-37 305-23 465 9 173 35 326 32 735-19v340H0z"/>
  <path stroke="#fff" stroke-linecap="round" stroke-opacity=".55" stroke-width="8" d="M0 548c170-22 294-8 434 17m207 20c167 15 313 2 559-28M0 664c165-17 278-6 394 13m303 12c145 9 307-4 503-28"/>
  <g fill="#fff" fill-opacity=".9">
    <path d="M414 267h294a28 28 0 0 1 28 28v197H386V295a28 28 0 0 1 28-28Z"/>
    <path d="M364 483h394v29H364z"/>
  </g>
  <g fill="#93c5fd">
    <path d="M425 302h39v49h-39zm68 0h39v49h-39zm68 0h39v49h-39zm68 0h39v49h-39zM425 379h39v49h-39zm68 0h39v49h-39zm68 0h39v49h-39zm68 0h39v49h-39z"/>
  </g>
  <path fill="#1e3a8a" fill-opacity=".72" d="M537 436h48v76h-48z"/>
</svg>
